<svg width="20" height="21" viewBox="0 0 20 21" fill="none" xmlns="http://www.w3.org/2000/svg">
<path d="M9.64823 0.756847L9.75 0.75C10.1297 0.75 10.4435 1.03215 10.4932 1.39823L10.5 1.5V9.75H18.75C19.1297 9.75 19.4435 10.0322 19.4932 10.3982L19.5 10.5C19.5 10.8797 19.2178 11.1935 18.8518 11.2432L18.75 11.25H10.5V19.5C10.5 19.8797 10.2178 20.1935 9.85177 20.2432L9.75 20.25C9.3703 20.25 9.05651 19.9678 9.00685 19.6018L9 19.5V11.25H0.75C0.370304 11.25 0.056509 10.9678 0.00684662 10.6018L0 10.5C0 10.1203 0.282154 9.80651 0.648229 9.75685L0.75 9.75H9V1.5C9 1.1203 9.28215 0.806509 9.64823 0.756847L9.75 0.75L9.64823 0.756847Z" fill="#262626"/>
</svg>
