<svg width="21" height="20" viewBox="0 0 21 20" fill="none" xmlns="http://www.w3.org/2000/svg">
<path fill-rule="evenodd" clip-rule="evenodd" d="M13.6249 0C14.0378 0 14.4083 0.253804 14.5574 0.638863L15.1276 2.11114C15.2767 2.4962 15.6472 2.75 16.0601 2.75H18C19.3807 2.75 20.5 3.86929 20.5 5.25V16.75C20.5 18.1307 19.3807 19.25 18 19.25H2.5C1.11929 19.25 0 18.1307 0 16.75V5.25C0 3.86929 1.11929 2.75 2.5 2.75H4.4399C4.85283 2.75 5.22329 2.4962 5.37241 2.11114L5.94259 0.638863C6.09171 0.253804 6.46217 0 6.8751 0H13.6249ZM10.25 5.15C7.15721 5.15 4.65 7.65721 4.65 10.75C4.65 13.8428 7.15721 16.35 10.25 16.35C13.3428 16.35 15.85 13.8428 15.85 10.75C15.85 7.65721 13.3428 5.15 10.25 5.15ZM10.25 6.35C12.6801 6.35 14.65 8.31995 14.65 10.75C14.65 13.1801 12.6801 15.15 10.25 15.15C7.81995 15.15 5.85 13.1801 5.85 10.75C5.85 8.31995 7.81995 6.35 10.25 6.35Z" fill="url(#paint0_linear_0_2616)"/>
<defs>
<linearGradient id="paint0_linear_0_2616" x1="8.87761" y1="-9.97632" x2="-12.4976" y2="12.4999" gradientUnits="userSpaceOnUse">
<stop stop-color="#378DEF"/>
<stop offset="1" stop-color="#6FC7FC"/>
</linearGradient>
</defs>
</svg>
